<svg width="591" height="188" viewBox="0 0 591 188" fill="none" xmlns="http://www.w3.org/2000/svg">
<path d="M540.7 34.7C542 42.2 542.9 48.5 542.8 48.6C542.7 48.7 537 51.6 530.2 54.9C523.4 58.3 518 61.3 518.2 61.5C518.4 61.6 524.7 62.8 532.1 64C539.5 65.2 545.6 66.2 545.7 66.3C545.8 66.4 546.6 71.4 547.5 77.5C550.4 96.6 549.5 96.2 556.7 81.7C560.2 74.7 563.7 69 564.4 69C565 69 570.8 69.9 577.1 71C583.4 72.1 589.3 73 590.1 73C590.9 73 587.1 68.5 581.6 63L571.6 53L577.9 40.5C581.3 33.6 583.9 28 583.6 28C583.3 28 577.6 30.7 570.9 34.1L558.8 40.2L549.2 30.6C543.9 25.3 539.3 21 539 21C538.7 21 539.4 27.2 540.7 34.7Z" fill="black"/>
<path d="M486.1 24C475.8 26.7 463.5 33 454.8 40C434.6 56.3 424 78.6 424 104.9C424 128.7 431.6 146.8 449 164C457.3 172.3 460 174.3 469.1 178.8C484.1 186.3 489.6 187.5 507.6 187.5C520.5 187.5 523.6 187.2 530.1 185.2C559.9 175.8 581.2 153.7 588.1 124.7C591.1 112.2 590.5 111.6 585.5 122C581.6 129.9 579.4 132.8 572.2 140C557.9 154.3 541.8 161 522.1 161C482.1 161 450.7 129.8 450.8 90C450.8 77.5 452.6 69.7 458 58.5C464.8 44.7 475.8 33.8 490.5 26.4C500.4 21.4 499.1 20.7 486.1 24Z" fill="black"/>
<path d="M277 26.5V53H250H223V66.5V80H250H277V133.5V187H290H303V133.5V80H330H357V66.5V53H330H303V26.5V-2.78652e-06H290H277V26.5Z" fill="black"/>
<path d="M65 28.2L52.3 50.4L26.2 50.9L0 51.4L12.6 73.4C19.4 85.5 25.1 95.9 25.1 96.5C25.1 97.1 19.5 107.5 12.6 119.5L0.1 141.4L26 141.7L52 141.9L64.8 164.4C71.8 176.8 77.8 186.9 78.1 186.9C78.4 186.9 84.2 177 91.1 164.9L103.6 143L130 142.9C153.2 142.9 156.2 142.7 155.7 141.4C155.4 140.5 149.7 130.3 143.1 118.7C136.5 107.1 131.1 97.1 131.1 96.5C131.1 95.9 136.7 85.6 143.6 73.6C150.5 61.6 156.1 51.6 156.1 51.4C156.1 51.1 144.3 50.8 129.9 50.7L103.7 50.4L91.2 28.2C84.3 16 78.4 6 78.1 6C77.8 6 71.9 16 65 28.2ZM82.8 43.1L87 50.4L82.5 50.7C80.1 50.9 76.1 50.9 73.7 50.7L69.2 50.4L73.4 43.1C75.6 39.2 77.8 35.9 78.1 35.9C78.4 35.9 80.6 39.2 82.8 43.1ZM43.1 66.3C43.1 67.8 34.8 80.8 34.1 80.4C33.6 80.1 31.4 76.7 29.2 72.9L25.2 65.9H34.2C39.1 65.9 43.1 66.1 43.1 66.3ZM104.5 80.8C109.2 89 113.1 96 113.1 96.5C113.1 96.9 109.2 104.2 104.4 112.6L95.6 127.9H78.1H60.6L51.9 112.6C47 104.2 43.1 96.9 43.1 96.5C43.1 96 47 89 51.7 80.8L60.3 65.9H78.1H95.9L104.5 80.8ZM128.1 71.1C126.4 74 124.5 77.4 123.9 78.6C122.1 82.2 122.3 82.4 116.2 71.6L113 65.9H122H131.1L128.1 71.1ZM38.9 119.4C41.2 123.5 43.1 127.1 43.1 127.4C43.1 127.7 39 127.9 34 127.9C29 127.9 25.1 127.6 25.3 127.1C26.5 124.2 33.7 111.9 34.1 111.9C34.4 111.9 36.5 115.3 38.9 119.4ZM126.6 119.2C128.8 123.1 130.8 126.7 130.9 127.1C131.1 127.6 127.2 127.9 122.2 127.9C117.2 127.9 113.1 127.6 113.1 127.2C113.1 126.3 121.5 111.9 122.1 111.9C122.4 111.9 124.4 115.2 126.6 119.2ZM83 149.9C80.7 153.7 78.6 156.9 78.1 156.9C77.6 156.9 75.5 153.7 73.2 149.9L69.2 142.9H78.1H87L83 149.9Z" fill="black"/>
</svg>
